<svg width="40" height="40" viewBox="0 0 40 40" fill="none" xmlns="http://www.w3.org/2000/svg">
<path d="M22.7375 35.1553C21.8438 35.4772 20.9326 35.7483 20.0083 35.9673C16.5686 35.091 13.2818 33.698 10.2599 31.8359C3.94988 28.0587 3 26.7966 3 26.38C3.00163 26.3626 3.00417 26.3453 3.00761 26.3281C3.01029 26.3142 3.01208 26.3017 3.0179 26.2798H14.6151L19.1595 29.2252C19.1057 29.4206 18.9834 29.5902 18.8149 29.7031C18.6465 29.8159 18.4431 29.8645 18.2419 29.8399C17.9699 29.827 17.7077 29.7344 17.488 29.5735C17.2684 29.4126 17.1009 29.1906 17.0065 28.9352C16.956 28.7968 16.8529 28.684 16.7196 28.6211C16.5864 28.5583 16.4337 28.5506 16.2948 28.5997C16.1559 28.6488 16.042 28.7507 15.9778 28.8833C15.9136 29.0159 15.9043 29.1685 15.952 29.3079C16.1233 29.7816 16.4336 30.1925 16.8422 30.4869C17.2508 30.7814 17.7388 30.9457 18.2423 30.9585C18.5926 30.9852 18.9433 30.9132 19.2548 30.7507C19.5662 30.5882 19.8259 30.3416 20.0043 30.039C20.1826 30.3416 20.4423 30.5882 20.7537 30.7507C21.0652 30.9132 21.4159 30.9852 21.7662 30.9585C22.2696 30.9454 22.7574 30.7809 23.166 30.4865C23.5745 30.192 23.8849 29.7813 24.0565 29.3079C24.1029 29.1686 24.0925 29.0166 24.0277 28.8848C23.9629 28.753 23.8488 28.652 23.7102 28.6035C23.5715 28.5551 23.4194 28.5632 23.2866 28.626C23.1539 28.6888 23.0511 28.8013 23.0006 28.9393C22.9061 29.1941 22.7387 29.4155 22.5191 29.5757C22.2996 29.736 22.0377 29.828 21.7662 29.8404C21.5659 29.8642 21.3636 29.8156 21.1959 29.7034C21.0283 29.5911 20.9063 29.4226 20.8521 29.2283L25.3979 26.2798H36.9593C36.9696 26.3062 36.9776 26.3272 36.9843 26.3456L36.9875 26.355C36.9928 26.3702 36.9973 26.384 37 26.3934C36.9553 26.5684 36.3929 27.8583 29.7518 31.8363C28.8207 32.3942 27.9214 32.8824 27.0713 33.3088C25.6667 34.0142 24.2193 34.6309 22.7375 35.1553Z" fill="white"/>
<path d="M31.8523 17.8003C31.8071 17.731 31.7779 17.6526 31.7667 17.5706C31.7554 17.4887 31.7625 17.4053 31.7874 17.3264C33.2867 12.5936 34.727 5.41208 33.2353 4.26177C31.8165 3.17185 27.0161 6.15883 23.1925 9.67555C23.0893 9.77052 22.9542 9.82322 22.8139 9.8232L20.0015 9.81783L17.1934 9.82276C17.0532 9.82273 16.9181 9.77003 16.8149 9.67511C13.5371 6.65994 9.53895 4.03448 7.57208 4.03448C7.28754 4.01956 7.00612 4.09968 6.77209 4.26221C5.1399 5.52036 6.37747 12.1341 8.21816 17.7461C8.2444 17.8259 8.25231 17.9106 8.24131 17.9939C8.23031 18.0771 8.20068 18.1569 8.15463 18.2271C7.36224 19.4351 6.58865 20.5761 5.90276 21.5828C5.01731 22.8843 4.11307 24.2131 3.55469 25.1621H14.78C14.888 25.162 14.9936 25.1931 15.0843 25.2516L19.2176 27.9303L18.4198 26.9012C18.3556 26.8186 18.3158 26.7196 18.3051 26.6154C18.2944 26.5113 18.3131 26.4063 18.3591 26.3123C18.4051 26.2182 18.4766 26.139 18.5654 26.0836C18.6542 26.0282 18.7567 25.9988 18.8614 25.9988H21.1455C21.2502 25.9988 21.3528 26.0282 21.4416 26.0836C21.5304 26.139 21.6018 26.2182 21.6479 26.3123C21.6939 26.4063 21.7126 26.5113 21.7018 26.6154C21.6911 26.7196 21.6513 26.8186 21.5871 26.9012L20.7862 27.9348L24.9276 25.2503C25.0182 25.1918 25.1239 25.1607 25.2318 25.1608H36.4008C35.4724 23.4865 33.6236 20.5116 31.8523 17.8003ZM9.83335 15.5318C9.83335 15.5318 6.76673 7.67603 8.14478 6.61654C9.52284 5.55705 14.6606 10.6715 14.6606 10.6715C14.6606 10.6715 11.0463 12.6178 9.83335 15.5318ZM14.4311 21.172C14.215 21.172 14.0039 21.108 13.8242 20.9879C13.6446 20.8679 13.5046 20.6973 13.422 20.4977C13.3393 20.2981 13.3177 20.0785 13.3599 19.8666C13.4021 19.6548 13.5062 19.4602 13.6589 19.3074C13.8117 19.1547 14.0064 19.0507 14.2183 19.0086C14.4301 18.9666 14.6498 18.9883 14.8493 19.071C15.0489 19.1537 15.2194 19.2938 15.3394 19.4734C15.4593 19.6531 15.5233 19.8643 15.5232 20.0803C15.5227 20.3698 15.4075 20.6473 15.2028 20.8519C14.998 21.0566 14.7205 21.1717 14.4311 21.172ZM25.5718 21.172C25.3558 21.172 25.1446 21.108 24.965 20.9879C24.7854 20.8679 24.6454 20.6973 24.5628 20.4977C24.4801 20.2981 24.4585 20.0785 24.5007 19.8666C24.5429 19.6548 24.647 19.4602 24.7997 19.3074C24.9525 19.1547 25.1472 19.0507 25.3591 19.0086C25.5709 18.9666 25.7906 18.9883 25.9901 19.071C26.1897 19.1537 26.3602 19.2938 26.4802 19.4734C26.6001 19.6531 26.6641 19.8643 26.664 20.0803C26.6635 20.3698 26.5483 20.6473 26.3436 20.8519C26.1388 21.0566 25.8613 21.1717 25.5718 21.172ZM25.3428 10.6711C25.3428 10.6711 30.4801 5.5566 31.8581 6.61654C33.2362 7.67648 30.1695 15.5318 30.1695 15.5318C28.9566 12.6178 25.3428 10.6711 25.3428 10.6711Z" fill="white"/>
</svg>
