<svg width="40" height="40" viewBox="0 0 40 40" fill="none" xmlns="http://www.w3.org/2000/svg">
<g clip-path="url(#clip0_746_819)">
<path d="M35.9853 28.5305C35.9117 28.1995 35.588 27.9871 35.2544 28.0563L31.0067 28.9849C31.0067 29.4788 30.943 30.0765 30.9233 30.2692L35.5144 29.2615C35.843 29.1874 36.0539 28.8614 35.9804 28.5255L35.9853 28.5305Z" fill="white"/>
<path d="M34.9946 35.0556L29.9817 33.5935C29.8591 33.8602 29.6187 34.3542 29.3882 34.7049L34.6512 36.2411C34.9749 36.3349 35.3183 36.1472 35.4115 35.8212C35.5047 35.4952 35.3183 35.1544 34.9946 35.0556Z" fill="white"/>
<path d="M4.01463 28.5305C4.08821 28.1995 4.41193 27.9871 4.74547 28.0563L8.99317 28.9849C8.99317 29.4788 9.05694 30.0765 9.07656 30.2692L4.48551 29.2615C4.15688 29.1874 3.94596 28.8614 4.01954 28.5255L4.01463 28.5305Z" fill="white"/>
<path d="M5.0005 35.0556L10.0134 33.5935C10.136 33.8602 10.3763 34.3542 10.6069 34.7049L5.34384 36.2411C5.02012 36.3349 4.67677 36.1472 4.58357 35.8212C4.49038 35.4952 4.67677 35.1544 5.0005 35.0556Z" fill="white"/>
<path d="M32.5028 3.72925C32.5323 2.59316 32.032 1.51142 31.154 0.795189C30.4231 0.222208 29.0792 -0.335954 26.8229 0.246906C23.9927 0.98289 23.1785 9.21702 23.0117 16.3447C22.0258 16.0632 21.0154 15.9199 20.0001 15.9199C18.9848 15.9199 17.9743 16.0632 16.9884 16.3447C16.8217 9.21702 16.0074 0.98289 13.1773 0.246906C10.9259 -0.335954 9.58193 0.222208 8.84619 0.795189C7.9682 1.50648 7.46789 2.59316 7.49732 3.72925C7.49732 4.0108 7.54637 10.6001 11.49 19.9802C9.87133 21.9609 8.98353 24.4455 8.98843 27.014V28.9898L12.5789 29.7752C12.9075 29.8493 13.1184 30.1753 13.0497 30.5062C12.9811 30.8372 12.6524 31.0545 12.3238 30.9804L9.07672 30.2691C9.21897 31.4151 9.53288 32.5413 10.0185 33.5885L12.7064 32.808C13.0301 32.7142 13.3686 32.9019 13.4667 33.2279C13.5599 33.5539 13.3784 33.8997 13.0497 33.9935L10.612 34.7048C11.5243 36.2015 12.7751 37.461 14.2613 38.3798C16.0271 39.4665 18.0724 39.9851 20.0001 39.9999C21.9277 39.9851 23.9731 39.4615 25.7389 38.3798C27.2251 37.461 28.4759 36.2015 29.3882 34.7048L26.9504 33.9935C26.6267 33.8997 26.4403 33.5539 26.5335 33.2279C26.6316 32.9019 26.97 32.7142 27.2938 32.808L29.9817 33.5885C30.4673 32.5413 30.7861 31.4151 30.9234 30.2691L27.6764 30.9804C27.3477 31.0496 27.0191 30.8372 26.9504 30.5062C26.8818 30.1753 27.0927 29.8443 27.4213 29.7752L31.0117 28.9898V28.9157V27.014C31.0117 24.4504 30.1288 21.9609 28.5102 19.9802C32.4538 10.6001 32.5028 4.00586 32.5028 3.72925ZM12.4023 18.9923C8.7628 10.1012 8.71866 3.79346 8.71866 3.72925C8.71866 3.34891 8.79223 2.96856 8.93938 2.61786C9.58193 2.57341 10.2245 2.64256 10.8474 2.8105C12.4072 3.21554 13.6187 9.22196 13.8787 17.792C13.3539 18.1476 12.8585 18.5477 12.4023 18.9873V18.9923ZM14.4624 25.9273C13.7904 25.9273 13.241 25.379 13.241 24.6974C13.241 24.0207 13.7904 23.4675 14.4624 23.4675C15.1344 23.4675 15.6837 24.0157 15.6837 24.6974C15.6837 25.3741 15.1393 25.9273 14.4624 25.9273ZM24.0859 33.3909C23.5611 34.1417 22.6831 34.5665 21.7757 34.5072C21.0645 34.5616 20.3827 34.2207 20.0001 33.6181C19.6126 34.2207 18.9308 34.5616 18.2245 34.5072C17.3122 34.5665 16.4391 34.1417 15.9142 33.3909C15.7671 33.1044 15.8603 32.7537 16.1301 32.5808C16.4146 32.3981 16.7971 32.487 16.9737 32.7735C17.2827 33.139 17.7487 33.3267 18.2245 33.2723C18.612 33.2723 19.1662 33.2674 19.3379 31.6226L18.3667 30.3679C18.2833 30.2593 18.2392 30.1259 18.2392 29.9876C18.2392 29.6468 18.5139 29.3701 18.8523 29.3701H21.1577C21.295 29.3701 21.4274 29.4146 21.5353 29.4986C21.8051 29.706 21.8493 30.0962 21.6432 30.363L20.6721 31.6176C20.8437 33.2575 21.3931 33.2674 21.7855 33.2674C22.2613 33.3217 22.7272 33.134 23.0363 32.7636C23.2128 32.482 23.5856 32.3882 23.875 32.5611C24.1595 32.729 24.2576 33.0945 24.0957 33.3859L24.0859 33.3909ZM26.7591 24.6974C26.7591 25.3741 26.2147 25.9273 25.5378 25.9273C24.8609 25.9273 24.3165 25.379 24.3165 24.6974C24.3165 24.0157 24.8609 23.4675 25.5378 23.4675C26.2098 23.4675 26.7591 24.0157 26.7591 24.6924V24.6974ZM26.1166 17.7969C26.3765 9.2269 27.5881 3.22048 29.1478 2.81544C29.7659 2.64256 30.4133 2.57835 31.0559 2.6228C31.2079 2.9735 31.2815 3.35385 31.2766 3.73419C31.2766 3.7984 31.2325 10.1061 27.593 18.9972C27.1368 18.5576 26.6414 18.1575 26.1166 17.8019V17.7969Z" fill="white"/>
</g>
<defs>
<clipPath id="clip0_746_819">
<rect width="32" height="40" fill="white" transform="translate(4)"/>
</clipPath>
</defs>
</svg>
