<svg width="20" height="20" viewBox="0 0 20 20" fill="none" xmlns="http://www.w3.org/2000/svg">
<path d="M15.2773 1.66675C16.9107 1.66675 18.244 2.94758 18.329 4.56008L18.3332 4.72258V15.2776C18.3332 16.9109 17.0523 18.2442 15.4398 18.3292L15.2773 18.3334H4.72234C3.93998 18.3335 3.18741 18.0334 2.61967 17.4951C2.05193 16.9569 1.71227 16.2213 1.67067 15.4401L1.6665 15.2776V4.72258C1.6665 3.08925 2.94734 1.75591 4.55984 1.67091L4.72234 1.66675H15.2773ZM10.8282 6.57175C10.759 5.92425 9.98817 5.60508 9.48067 6.01341L9.41067 6.07758L7.744 7.74425L7.67484 7.82258C7.56145 7.96873 7.49991 8.14844 7.49991 8.33341C7.49991 8.51839 7.56145 8.6981 7.67484 8.84425L7.744 8.92258L7.82234 8.99175C7.96848 9.10514 8.1482 9.16668 8.33317 9.16668C8.51814 9.16668 8.69786 9.10514 8.844 8.99175L8.92234 8.92258L9.1665 8.67841V13.3334L9.17234 13.4309C9.19643 13.6335 9.29397 13.8201 9.44647 13.9556C9.59898 14.091 9.79587 14.1658 9.99984 14.1658C10.2038 14.1658 10.4007 14.091 10.5532 13.9556C10.7057 13.8201 10.8032 13.6335 10.8273 13.4309L10.8332 13.3334V6.66675L10.8282 6.57175Z" fill="white" fill-opacity="0.7"/>
</svg>
